# xmcd
#
# Track frame offsets:
#	150
#	10832
#	22347
#	37567
#	54090
#	70827
#	89587
#	102402
#	119305
#	130950
#	142392
#	158812
#	168545
#	180070
#	192700
#	208450
#	223272
#	240730
#	255990
#	271662
#	286815
#	302820
#	319895
#	332325
#	347290
#
# Disc length: 4761 seconds
#
# Revision: 1
# Processed by: cddbd v1.5.1PL0 Copyright (c) Steve Scherf et al.
# Submitted via: audiograbber 1.83.01
#
DISCID=6d129719
DTITLE=Various Artist - The Spring Story - 70's Essential Soul
DYEAR=1995
DGENRE=Soul 70s
TTITLE0=Act 1 - Tom the peeper 73
TTITLE1=Millie Jackson - My man is a sweet man 72
TTITLE2=Joe Simon - Step By Step 73
TTITLE3=The Mayberry Movement - I can see him making love to you 74
TTITLE4=Jocelyn Brown - Too trough 81
TTITLE5=Fatback Band - I found lovin' 83
TTITLE6=Ray Godfrey - I gotta get away 70
TTITLE7=Garland Green - He Didn't know 73
TTITLE8=Flower Shoppe - You've come a long way baby 73
TTITLE9=Street People - Baby you got it all 74
TTITLE10=Busta Jones - Just a little misunderstanding 80
TTITLE11=Winfield Parker - SOS Stop her on sight 76
TTITLE12=Little Eva Harris - Get Ready - Uptight 67
TTITLE13=Fatback band - Do the Bus Stop (Are you ready) 75
TTITLE14=Mainstreeters - It's my life 73
TTITLE15=Bobby Newsome - Jody come back and get your shoes 72
TTITLE16=Phillip Mitchel - If we get caught I don't know you 75
TTITLE17=Joe Simon - Drowning in the sea of love 72
TTITLE18=Millie jackson - If loving you is wrong 74
TTITLE19=Act 1 - Friends or lovers 73
TTITLE20=Ronnie Walker - Magic's in the air 75
TTITLE21=Joneses - Love contest 79
TTITLE22=Boys in the band - How about little hand 70
TTITLE23=Garland Green - Bumpin' and stompin' 75
TTITLE24=Rod Godfrey and Determinations - Come and get these memories 77
EXTD=POSSE - CDSEWD 103  - 1995
EXTT0=
EXTT1=
EXTT2=
EXTT3=
EXTT4=
EXTT5=
EXTT6=
EXTT7=
EXTT8=
EXTT9=
EXTT10=
EXTT11=
EXTT12=
EXTT13=
EXTT14=
EXTT15=
EXTT16=
EXTT17=
EXTT18=
EXTT19=
EXTT20=
EXTT21=
EXTT22=
EXTT23=
EXTT24=
PLAYORDER=
